<svg xmlns="http://www.w3.org/2000/svg" viewBox="0 0 1265.57377 322.95082"><defs><style>.a{fill:#0047ba;}.b{fill:none;}</style></defs><title>luminous-logo-freelogovectors.net</title><path class="a" d="M462.99639,367.87513c-7.08907,50.7268-14.09448,100.48069-20.90616,150.26111-.5865,4.28643-1.895,5.908-6.45105,5.76352-10.97-.34777-21.96275-.28856-32.9377-.02877-4.93383.11678-7.02132-1.28415-7.74029-6.60894-6.26-46.36569-12.85242-92.68652-19.36342-139.01822a23.4915,23.4915,0,0,0-2.07359-7.38633c-.28572,2.55907-.76294,5.11336-.82688,7.678-.51352,20.60555-.88968,41.21457-1.42339,61.81955-.67324,25.99-1.52658,51.97556-2.12257,77.96717-.1018,4.44136-1.79409,6.258-6.17973,6.22913-13.87016-.09148-27.74209-.11222-41.61159.02076-4.44244.04259-6.24572-1.62931-5.98661-6.17111,1.0528-18.4543,1.85571-36.92278,2.88328-55.37863.90975-16.3395,2.01927-32.66777,2.998-49.00355q3.35048-55.92327,6.64051-111.85014.57306-9.80616.72316-19.63537c.06172-3.88321,1.71141-5.46539,5.62623-5.45006q30.05275.11772,60.10623-.05271c4.50679-.02883,5.94779,2.30053,6.53249,6.27824q5.96565,40.58421,12.12312,81.14016a301.62977,301.62977,0,0,0,6.1798,32.453c1.62672-10.68147,3.28893-21.35767,4.87317-32.04544,4.00967-27.05086,8.06323-54.09571,11.90133-81.17105.70528-4.97481,2.8108-6.8085,7.89682-6.74765,18.87693.22585,37.75837.057,56.63812.07251,7.36646.00606,7.90938.71248,8.31507,8.36787q2.99574,56.52771,6.11247,113.049c2.17762,38.63481,4.56572,77.25778,6.72492,115.89357.52224,9.34513.27474,9.362-8.8526,9.38431-13.10013.032-26.20281-.07607-39.29891.16876-4.02305.0752-5.29072-1.295-5.56853-5.24354-.69028-9.81233-.694-19.62837-.9044-29.447q-1.21914-56.90541-2.543-113.80855C464.42882,373.10427,464.61362,370.76886,462.99639,367.87513Z" transform="translate(-6.81967 -238.52459)"/><path class="a" d="M682.15147,413.64248c0,6.71958.01172,13.4392-.00205,20.15878-.05794,28.32889-.21983,56.65825-.0849,84.98619.02082,4.38224-1.67167,5.11882-5.46006,5.07636-14.44872-.162-28.90555-.29808-43.34785.04461-5.24926.12455-6.97563-1.26289-6.92234-6.70679.26006-26.59506.11532-53.1941.11574-79.79172q.00128-76.03451.0072-152.069c.00106-7.95786.15406-8.14065,8.016-8.17178,15.02834-.05952,30.05872.05974,45.08417-.16842,4.6407-.07047,6.69672,1.47073,7.89089,6.17116,8.68089,34.16976,17.68473,68.25745,26.60769,102.36554a14.82043,14.82043,0,0,0,2.77339,5.87267q0-3.574-.00007-7.14794-.00306-49.72595-.00162-99.45189c.0019-7.47353.25943-7.73889,7.852-7.75916,13.67975-.03651,27.36155.105,41.03833-.10172,4.78686-.07235,6.94366,1.27557,6.93561,6.51082q-.178,116.798-.016,233.59626c.00671,5.02269-1.71409,6.76921-6.7205,6.70931-16.18186-.19367-32.37078-.19206-48.55039.1016-4.29807.078-5.02984-2.20735-5.88145-5.42311q-13.61172-51.39528-27.37976-102.74911a20.26742,20.26742,0,0,0-.80927-2.097Z" transform="translate(-6.81967 -238.52459)"/><path class="a" d="M1108.96669,370.31741c.00155,28.33683.299,56.678-.11511,85.00878a83.0044,83.0044,0,0,1-13.12179,44.355c-7.94086,12.33188-19.29409,20.177-33.36425,24.2752a94.79734,94.79734,0,0,1-41.80766,2.44026c-32.4101-5.20169-51.089-24.61454-56.37883-57.09847a166.56574,166.56574,0,0,1-2.00153-26.47145q-.15033-74.60078-.03882-149.202c.00155-4.41965.268-8.84038.21892-13.25847-.03155-2.83692,1.32424-3.6483,3.91394-3.64339,17.15034.03248,34.30132.04681,51.4511-.07059,3.2214-.02206,4.644,1.20337,4.5738,4.36677-.04277,1.92625.02872,3.85476.02893,5.78226q.00848,80.38409-.0067,160.76817c-.00191,4.10481.22266,8.02674,2.79365,11.54891,3.25456,4.45867,7.47578,6.6801,12.92969,5.79818a12.93471,12.93471,0,0,0,10.4777-10.98253,53.64,53.64,0,0,0,.28737-7.50111q.00953-80.384-.01383-160.76807c-.00184-9.474-.01341-9.22813,9.61677-9.06475,14.256.24185,28.51881.10744,42.77868.106,7.74085-.00075,7.76788-.02613,7.77148,8.02252Q1108.979,327.523,1108.96669,370.31741Z" transform="translate(-6.81967 -238.52459)"/><path class="a" d="M947.3014,403.94206a217.88316,217.88316,0,0,1-4.86717,56.2506c-4.39623,19.64133-11.64,38.1176-27.12943,51.86869-31.04648,27.56217-89.08935,23.3508-110.85534-24.42a150.15259,150.15259,0,0,1-13.36641-57.61484c-.87815-26.13574-2.21121-52.39967,1.98184-78.43383,3.79389-23.556,10.70417-45.75579,28.5071-63.03066,28.20216-27.36558,81.43863-22.03562,103.81868,10.25822,13.167,18.99966,17.9553,40.60853,20.673,62.981C947.62541,374.658,947.28821,387.56193,947.3014,403.94206Zm-59.19915-4.63643c.13557-17.1624-.479-34.25627-4.95659-50.95863-1.50378-5.60923-3.45612-11.07769-7.91107-15.13033-4.51543-4.10773-9.6263-3.73684-13.6185.88362-4.41486,5.10957-6.622,11.31014-7.87691,17.75229a244.61166,244.61166,0,0,0,.08941,96.26763c1.30145,6.415,3.44476,12.66767,7.93359,17.72373,4.25713,4.79518,8.07234,4.974,13.01749,1.05864,4.179-3.30865,5.91307-7.96036,7.41106-12.75412C887.78008,436.2622,888.04861,417.79056,888.10225,399.30563Z" transform="translate(-6.81967 -238.52459)"/><path class="a" d="M300.83607,371.75608c-.00261,28.13446.18617,56.2707-.07867,84.40265a82.91548,82.91548,0,0,1-11.64916,42.42195,57.44176,57.44176,0,0,1-34.9861,26.63461,99.92194,99.92194,0,0,1-48.05767,1.22031c-27.71833-5.88678-42.5779-24.46254-48.91935-51.01823a97.05768,97.05768,0,0,1-2.52336-22.90187q.18-82.95771.07381-165.91606c.00225-8.58.04388-8.58729,8.70693-8.60459q21.0938-.0421,42.18767-.06346c8.50848-.00428,8.52631.01361,8.5273,8.78483q.00893,79.48947.0132,158.97894a53.84113,53.84113,0,0,0,.27915,8.07577c1.06907,6.99824,7.10843,12.58786,13.15321,12.47764,6.65585-.12137,12.983-6.21951,13.703-13.36253.231-2.29191.1337-4.6201.134-6.93168q.00966-80.06759.01106-160.13516c.00152-8.01046.03213-7.9595,7.96957-7.93811,14.833.04,29.674.29111,44.49554-.12194,5.81672-.1621,7.104,1.90341,7.064,7.2819C300.72546,313.94472,300.8387,342.85082,300.83607,371.75608Z" transform="translate(-6.81967 -238.52459)"/><path class="a" d="M1123.6404,476.35342c0-10.02388-.01941-20.04786.02428-30.07154.0055-1.27409-.4456-2.95029,1.07391-3.6121,1.66243-.72411,2.2779,1.03476,3.15012,1.92163,5.53783,5.63056,10.80071,11.57656,17.65156,15.71139a65.03511,65.03511,0,0,0,8.63445,4.64826c7.77769,3.209,15.69717,4.98533,22.7212-1.56768,5.68442-5.30326,6.20588-13.93112,1.46807-23.74473-5.02977-10.41821-13.27092-18.49274-21.23266-26.50756-19.1257-19.253-30.77032-42.05317-32.54786-69.05788-3.48506-52.94315,42.79364-85.95713,87.00991-69.91812a110.52773,110.52773,0,0,1,21.71546,10.74915,8.17957,8.17957,0,0,1,4.2704,7.56984c-.1036,17.34841-.02273,34.69787-.074,52.04677-.00424,1.4153.72309,3.45684-1.1766,4.04979-1.69137.52781-2.58356-1.33232-3.67222-2.33449a94.99017,94.99017,0,0,0-17.50689-13.15241c-9.543-5.38866-20.39608-5.20719-25.74407.57416-4.88983,5.28606-4.06645,16.73126,1.50187,25.36664,5.01079,7.77077,11.97555,13.59958,19.00368,19.24946,21.92689,17.62688,31.87888,40.93373,33.22627,68.45105a100.49919,100.49919,0,0,1-6.88162,43.02723c-12.95785,32.1918-48.66789,46.92166-80.77678,37.21411a109.12537,109.12537,0,0,1-27.60679-13.00781,8.51981,8.51981,0,0,1-4.30724-8.11272c.16747-9.82827.057-19.66131.057-29.49244Z" transform="translate(-6.81967 -238.52459)"/><path class="a" d="M36.73989,401.22819q-.00435-57.54162.00326-115.08325c.00282-7.9382.14957-8.07375,8.09461-8.09362q21.96836-.05495,43.93683-.04862c7.10309.00706,7.41454.33,7.4161,7.60084q.01841,85.30037.00973,170.60073c.00074,9.05692.01425,9.06249,8.8026,9.06885,9.63529.007,19.273.12932,28.90477-.05506,4.30661-.08246,6.33133,1.23867,6.28215,5.90136-.16872,15.998-.11827,31.99924-.02059,47.99846.02379,3.89547-1.48139,5.57535-5.44684,5.56928q-46.24876-.07069-92.49756.07178c-5.531.023-5.507-3.37039-5.50341-7.29091Q36.77424,459.34816,36.73989,401.22819Z" transform="translate(-6.81967 -238.52459)"/><path class="a" d="M600.48542,400.23274q-.00142,57.80976-.00592,115.61952c-.00216,7.679-.13924,7.82183-7.67977,7.83492-15.02556.02612-30.05376-.14391-45.07532.10247-5.046.08279-6.7325-1.71391-6.72622-6.69871q.14761-116.77553.01013-233.55127c-.00484-4.70767,1.781-6.57221,6.46622-6.54016,15.4099.1054,30.82452.16665,46.2304-.1226,5.42978-.10195,6.88663,2.01994,6.86606,7.15848C600.41591,322.76733,600.48638,361.50018,600.48542,400.23274Z" transform="translate(-6.81967 -238.52459)"/><rect class="b" width="1265.57377" height="322.95082"/></svg>